<mxfile host="app.diagrams.net" modified="2024-01-07T13:49:34.383Z" agent="Mozilla/5.0 (Windows NT 10.0; Win64; x64) AppleWebKit/537.36 (KHTML, like Gecko) Chrome/120.0.0.0 Safari/537.36" etag="JYrb2OhBDLJYgH1yw4mp" version="22.1.17" type="device">
  <diagram name="Страница — 1" id="7kXbt-CzaQQpOyWx0sW9">
    <mxGraphModel dx="4582" dy="2667" grid="1" gridSize="10" guides="1" tooltips="1" connect="1" arrows="1" fold="1" page="1" pageScale="1" pageWidth="827" pageHeight="1169" math="0" shadow="0">
      <root>
        <mxCell id="0" />
        <mxCell id="1" parent="0" />
        <mxCell id="e1zbVRpwkA5otT1UR_wA-1" value="&lt;font style=&quot;font-size: 18px;&quot;&gt;Солдат&lt;/font&gt;" style="shape=umlActor;verticalLabelPosition=bottom;verticalAlign=top;html=1;" vertex="1" parent="1">
          <mxGeometry x="-780" y="-355" width="40" height="85" as="geometry" />
        </mxCell>
        <mxCell id="e1zbVRpwkA5otT1UR_wA-3" value="&lt;font style=&quot;font-size: 17px;&quot;&gt;Администратор&lt;/font&gt;" style="shape=umlActor;verticalLabelPosition=bottom;verticalAlign=top;html=1;" vertex="1" parent="1">
          <mxGeometry x="-730" y="55" width="40" height="85" as="geometry" />
        </mxCell>
        <mxCell id="e1zbVRpwkA5otT1UR_wA-10" value="" style="rounded=0;whiteSpace=wrap;html=1;" vertex="1" parent="1">
          <mxGeometry x="-410" y="-745" width="480" height="1330" as="geometry" />
        </mxCell>
        <mxCell id="e1zbVRpwkA5otT1UR_wA-11" value="&lt;font style=&quot;font-size: 16px;&quot;&gt;Управление воинскими частями&lt;/font&gt;" style="text;html=1;strokeColor=none;fillColor=none;align=center;verticalAlign=middle;whiteSpace=wrap;rounded=0;" vertex="1" parent="1">
          <mxGeometry x="-160" y="-745" width="230" height="50" as="geometry" />
        </mxCell>
        <mxCell id="e1zbVRpwkA5otT1UR_wA-13" value="" style="rounded=1;whiteSpace=wrap;html=1;" vertex="1" parent="1">
          <mxGeometry x="-380" y="-675" width="430" height="650" as="geometry" />
        </mxCell>
        <mxCell id="e1zbVRpwkA5otT1UR_wA-14" value="&lt;font style=&quot;font-size: 13px;&quot;&gt;Управление служащими&lt;/font&gt;" style="text;html=1;strokeColor=none;fillColor=none;align=center;verticalAlign=middle;whiteSpace=wrap;rounded=0;" vertex="1" parent="1">
          <mxGeometry x="-150" y="-675" width="190" height="30" as="geometry" />
        </mxCell>
        <mxCell id="e1zbVRpwkA5otT1UR_wA-16" value="&lt;font style=&quot;font-size: 18px;&quot;&gt;Просмотри информации о служащих&lt;/font&gt;" style="ellipse;whiteSpace=wrap;html=1;" vertex="1" parent="1">
          <mxGeometry x="-291.25" y="-645" width="252.5" height="70" as="geometry" />
        </mxCell>
        <mxCell id="e1zbVRpwkA5otT1UR_wA-17" value="&lt;font style=&quot;font-size: 18px;&quot;&gt;Добавление нового служащего&lt;/font&gt;" style="ellipse;whiteSpace=wrap;html=1;" vertex="1" parent="1">
          <mxGeometry x="-291.25" y="-550" width="252.5" height="70" as="geometry" />
        </mxCell>
        <mxCell id="e1zbVRpwkA5otT1UR_wA-18" value="&lt;font style=&quot;font-size: 18px;&quot;&gt;Удаление служащего&lt;/font&gt;" style="ellipse;whiteSpace=wrap;html=1;" vertex="1" parent="1">
          <mxGeometry x="-291.25" y="-455" width="252.5" height="70" as="geometry" />
        </mxCell>
        <mxCell id="e1zbVRpwkA5otT1UR_wA-20" value="" style="endArrow=open;endFill=1;endSize=12;html=1;rounded=0;entryX=0;entryY=0.5;entryDx=0;entryDy=0;exitX=0.5;exitY=0;exitDx=0;exitDy=0;exitPerimeter=0;curved=1;fillColor=#008a00;strokeColor=#005700;strokeWidth=2;" edge="1" parent="1" source="e1zbVRpwkA5otT1UR_wA-1" target="e1zbVRpwkA5otT1UR_wA-16">
          <mxGeometry width="160" relative="1" as="geometry">
            <mxPoint x="-670" y="-275" as="sourcePoint" />
            <mxPoint x="-510" y="-275" as="targetPoint" />
            <Array as="points">
              <mxPoint x="-700" y="-465" />
            </Array>
          </mxGeometry>
        </mxCell>
        <mxCell id="e1zbVRpwkA5otT1UR_wA-21" value="" style="endArrow=open;endFill=1;endSize=12;html=1;rounded=0;exitX=0.5;exitY=0;exitDx=0;exitDy=0;exitPerimeter=0;curved=1;entryX=0;entryY=0.5;entryDx=0;entryDy=0;fillColor=#e51400;strokeColor=#B20000;strokeWidth=2;" edge="1" parent="1" source="e1zbVRpwkA5otT1UR_wA-3" target="e1zbVRpwkA5otT1UR_wA-16">
          <mxGeometry width="160" relative="1" as="geometry">
            <mxPoint x="-580" y="-225" as="sourcePoint" />
            <mxPoint x="-460" y="-465" as="targetPoint" />
            <Array as="points">
              <mxPoint x="-730" y="-105" />
              <mxPoint x="-690" y="-255" />
            </Array>
          </mxGeometry>
        </mxCell>
        <mxCell id="e1zbVRpwkA5otT1UR_wA-22" value="" style="endArrow=open;endFill=1;endSize=12;html=1;rounded=0;exitX=0.5;exitY=0;exitDx=0;exitDy=0;exitPerimeter=0;entryX=0;entryY=0.5;entryDx=0;entryDy=0;curved=1;fillColor=#e51400;strokeColor=#B20000;strokeWidth=2;" edge="1" parent="1" source="e1zbVRpwkA5otT1UR_wA-3" target="e1zbVRpwkA5otT1UR_wA-17">
          <mxGeometry width="160" relative="1" as="geometry">
            <mxPoint x="-570" y="-35" as="sourcePoint" />
            <mxPoint x="-410" y="-35" as="targetPoint" />
            <Array as="points">
              <mxPoint x="-590" y="-285" />
            </Array>
          </mxGeometry>
        </mxCell>
        <mxCell id="e1zbVRpwkA5otT1UR_wA-23" value="" style="endArrow=open;endFill=1;endSize=12;html=1;rounded=0;exitX=0.75;exitY=0.1;exitDx=0;exitDy=0;exitPerimeter=0;entryX=0;entryY=0.5;entryDx=0;entryDy=0;curved=1;fillColor=#e51400;strokeColor=#B20000;strokeWidth=2;" edge="1" parent="1" source="e1zbVRpwkA5otT1UR_wA-3" target="e1zbVRpwkA5otT1UR_wA-18">
          <mxGeometry width="160" relative="1" as="geometry">
            <mxPoint x="-540" y="-55" as="sourcePoint" />
            <mxPoint x="-380" y="-55" as="targetPoint" />
            <Array as="points">
              <mxPoint x="-510" y="-215" />
            </Array>
          </mxGeometry>
        </mxCell>
        <mxCell id="e1zbVRpwkA5otT1UR_wA-24" value="&lt;font style=&quot;font-size: 18px;&quot;&gt;Вывод списка офицерских составов&lt;/font&gt;" style="ellipse;whiteSpace=wrap;html=1;" vertex="1" parent="1">
          <mxGeometry x="-291.25" y="-365" width="252.5" height="70" as="geometry" />
        </mxCell>
        <mxCell id="e1zbVRpwkA5otT1UR_wA-25" value="" style="endArrow=open;endFill=1;endSize=12;html=1;rounded=0;exitX=0.75;exitY=0.1;exitDx=0;exitDy=0;exitPerimeter=0;curved=1;entryX=0;entryY=0.5;entryDx=0;entryDy=0;fillColor=#0050ef;strokeColor=#001DBC;strokeWidth=2;" edge="1" parent="1" source="e1zbVRpwkA5otT1UR_wA-2" target="e1zbVRpwkA5otT1UR_wA-24">
          <mxGeometry width="160" relative="1" as="geometry">
            <mxPoint x="-570" y="155" as="sourcePoint" />
            <mxPoint x="-410" y="155" as="targetPoint" />
            <Array as="points">
              <mxPoint x="-530" y="-125" />
            </Array>
          </mxGeometry>
        </mxCell>
        <mxCell id="e1zbVRpwkA5otT1UR_wA-26" value="" style="endArrow=open;endFill=1;endSize=12;html=1;rounded=0;exitX=0.25;exitY=0.1;exitDx=0;exitDy=0;exitPerimeter=0;curved=1;entryX=0;entryY=0.5;entryDx=0;entryDy=0;strokeColor=#001DBC;fillColor=#0050ef;strokeWidth=2;" edge="1" parent="1" source="e1zbVRpwkA5otT1UR_wA-2" target="e1zbVRpwkA5otT1UR_wA-16">
          <mxGeometry width="160" relative="1" as="geometry">
            <mxPoint x="-550" y="145" as="sourcePoint" />
            <mxPoint x="-390" y="145" as="targetPoint" />
            <Array as="points">
              <mxPoint x="-680" y="-205" />
            </Array>
          </mxGeometry>
        </mxCell>
        <mxCell id="e1zbVRpwkA5otT1UR_wA-28" value="&lt;font style=&quot;font-size: 17px;&quot;&gt;Вывод списка обладателей золотого значка ГТО&amp;nbsp;&lt;/font&gt;" style="ellipse;whiteSpace=wrap;html=1;" vertex="1" parent="1">
          <mxGeometry x="-296.25" y="-275" width="252.5" height="70" as="geometry" />
        </mxCell>
        <mxCell id="e1zbVRpwkA5otT1UR_wA-29" value="" style="endArrow=open;endFill=1;endSize=12;html=1;rounded=0;exitX=0.436;exitY=0.3;exitDx=0;exitDy=0;exitPerimeter=0;curved=1;entryX=0;entryY=0.664;entryDx=0;entryDy=0;entryPerimeter=0;fillColor=#f8cecc;strokeColor=#103bbc;strokeWidth=2;" edge="1" parent="1" source="e1zbVRpwkA5otT1UR_wA-2" target="e1zbVRpwkA5otT1UR_wA-28">
          <mxGeometry width="160" relative="1" as="geometry">
            <mxPoint x="-550" y="185" as="sourcePoint" />
            <mxPoint x="-390" y="185" as="targetPoint" />
            <Array as="points">
              <mxPoint x="-520" y="-55" />
            </Array>
          </mxGeometry>
        </mxCell>
        <mxCell id="e1zbVRpwkA5otT1UR_wA-32" value="&lt;font style=&quot;font-size: 18px;&quot;&gt;Вывод количества должностей&lt;/font&gt;" style="ellipse;whiteSpace=wrap;html=1;" vertex="1" parent="1">
          <mxGeometry x="-291.25" y="-185" width="252.5" height="70" as="geometry" />
        </mxCell>
        <mxCell id="e1zbVRpwkA5otT1UR_wA-33" value="" style="endArrow=open;endFill=1;endSize=12;html=1;rounded=0;exitX=0.75;exitY=0.1;exitDx=0;exitDy=0;exitPerimeter=0;curved=1;entryX=0;entryY=0.5;entryDx=0;entryDy=0;strokeWidth=2;fillColor=#e51400;strokeColor=#B20000;" edge="1" parent="1" source="e1zbVRpwkA5otT1UR_wA-3" target="e1zbVRpwkA5otT1UR_wA-28">
          <mxGeometry width="160" relative="1" as="geometry">
            <mxPoint x="-550" y="195" as="sourcePoint" />
            <mxPoint x="-390" y="195" as="targetPoint" />
            <Array as="points">
              <mxPoint x="-530" y="-135" />
            </Array>
          </mxGeometry>
        </mxCell>
        <mxCell id="e1zbVRpwkA5otT1UR_wA-34" value="" style="endArrow=open;endFill=1;endSize=12;html=1;rounded=0;exitX=0.5;exitY=0.5;exitDx=0;exitDy=0;exitPerimeter=0;entryX=0;entryY=0.5;entryDx=0;entryDy=0;strokeWidth=2;fillColor=#0050ef;strokeColor=#001DBC;curved=1;" edge="1" parent="1" source="e1zbVRpwkA5otT1UR_wA-2" target="e1zbVRpwkA5otT1UR_wA-32">
          <mxGeometry width="160" relative="1" as="geometry">
            <mxPoint x="-560" y="205" as="sourcePoint" />
            <mxPoint x="-400" y="205" as="targetPoint" />
            <Array as="points">
              <mxPoint x="-510" y="25" />
            </Array>
          </mxGeometry>
        </mxCell>
        <mxCell id="e1zbVRpwkA5otT1UR_wA-35" value="" style="rounded=1;whiteSpace=wrap;html=1;" vertex="1" parent="1">
          <mxGeometry x="-380" y="35" width="430" height="350" as="geometry" />
        </mxCell>
        <mxCell id="e1zbVRpwkA5otT1UR_wA-36" value="&lt;font style=&quot;font-size: 15px;&quot;&gt;Управление вооружением&lt;/font&gt;" style="text;html=1;strokeColor=none;fillColor=none;align=center;verticalAlign=middle;whiteSpace=wrap;rounded=0;" vertex="1" parent="1">
          <mxGeometry x="-180" y="45" width="230" height="30" as="geometry" />
        </mxCell>
        <mxCell id="e1zbVRpwkA5otT1UR_wA-37" value="&lt;font style=&quot;font-size: 18px;&quot;&gt;Вывод количества вооружения в определенной части&lt;/font&gt;" style="ellipse;whiteSpace=wrap;html=1;" vertex="1" parent="1">
          <mxGeometry x="-291.25" y="105" width="252.5" height="70" as="geometry" />
        </mxCell>
        <mxCell id="e1zbVRpwkA5otT1UR_wA-38" value="" style="endArrow=classic;html=1;rounded=0;exitX=0.559;exitY=0.341;exitDx=0;exitDy=0;exitPerimeter=0;strokeWidth=2;fillColor=#0050ef;strokeColor=#001DBC;entryX=0;entryY=0.5;entryDx=0;entryDy=0;curved=1;" edge="1" parent="1" source="e1zbVRpwkA5otT1UR_wA-2" target="e1zbVRpwkA5otT1UR_wA-37">
          <mxGeometry width="50" height="50" relative="1" as="geometry">
            <mxPoint x="-530" y="185" as="sourcePoint" />
            <mxPoint x="-480" y="135" as="targetPoint" />
            <Array as="points">
              <mxPoint x="-500" y="105" />
            </Array>
          </mxGeometry>
        </mxCell>
        <mxCell id="e1zbVRpwkA5otT1UR_wA-39" value="" style="endArrow=classic;html=1;rounded=0;exitX=1;exitY=0.3333333333333333;exitDx=0;exitDy=0;exitPerimeter=0;strokeWidth=2;curved=1;fillColor=#e51400;strokeColor=#B20000;entryX=0.038;entryY=0.334;entryDx=0;entryDy=0;entryPerimeter=0;" edge="1" parent="1" source="e1zbVRpwkA5otT1UR_wA-3" target="e1zbVRpwkA5otT1UR_wA-37">
          <mxGeometry width="50" height="50" relative="1" as="geometry">
            <mxPoint x="-570" y="315" as="sourcePoint" />
            <mxPoint x="-520" y="265" as="targetPoint" />
          </mxGeometry>
        </mxCell>
        <mxCell id="e1zbVRpwkA5otT1UR_wA-40" value="&lt;font style=&quot;font-size: 18px;&quot;&gt;Добавление нового оружия в таблицу вооружения&lt;/font&gt;" style="ellipse;whiteSpace=wrap;html=1;" vertex="1" parent="1">
          <mxGeometry x="-310" y="195" width="280" height="70" as="geometry" />
        </mxCell>
        <mxCell id="e1zbVRpwkA5otT1UR_wA-41" value="&lt;font style=&quot;font-size: 18px;&quot;&gt;Удаление оружия из таблицы вооружения&lt;/font&gt;" style="ellipse;whiteSpace=wrap;html=1;" vertex="1" parent="1">
          <mxGeometry x="-310" y="295" width="280" height="70" as="geometry" />
        </mxCell>
        <mxCell id="e1zbVRpwkA5otT1UR_wA-42" value="" style="endArrow=classic;html=1;rounded=0;fillColor=#e51400;strokeColor=#B20000;strokeWidth=2;curved=1;exitX=1;exitY=0.3333333333333333;exitDx=0;exitDy=0;exitPerimeter=0;entryX=0.009;entryY=0.314;entryDx=0;entryDy=0;entryPerimeter=0;" edge="1" parent="1" source="e1zbVRpwkA5otT1UR_wA-3" target="e1zbVRpwkA5otT1UR_wA-40">
          <mxGeometry width="50" height="50" relative="1" as="geometry">
            <mxPoint x="-610" y="445" as="sourcePoint" />
            <mxPoint x="-560" y="395" as="targetPoint" />
            <Array as="points">
              <mxPoint x="-560" y="225" />
            </Array>
          </mxGeometry>
        </mxCell>
        <mxCell id="e1zbVRpwkA5otT1UR_wA-43" value="" style="endArrow=classic;html=1;rounded=0;curved=1;fillColor=#e51400;strokeColor=#B20000;strokeWidth=2;exitX=0;exitY=1;exitDx=0;exitDy=0;exitPerimeter=0;entryX=0;entryY=0.5;entryDx=0;entryDy=0;" edge="1" parent="1" source="e1zbVRpwkA5otT1UR_wA-3" target="e1zbVRpwkA5otT1UR_wA-41">
          <mxGeometry width="50" height="50" relative="1" as="geometry">
            <mxPoint x="-570" y="465" as="sourcePoint" />
            <mxPoint x="-520" y="415" as="targetPoint" />
            <Array as="points">
              <mxPoint x="-570" y="315" />
            </Array>
          </mxGeometry>
        </mxCell>
        <mxCell id="e1zbVRpwkA5otT1UR_wA-44" value="" style="rounded=1;whiteSpace=wrap;html=1;" vertex="1" parent="1">
          <mxGeometry x="-370" y="435" width="410" height="130" as="geometry" />
        </mxCell>
        <mxCell id="e1zbVRpwkA5otT1UR_wA-45" value="&lt;font style=&quot;font-size: 15px;&quot;&gt;Аудит&lt;/font&gt;" style="text;html=1;strokeColor=none;fillColor=none;align=center;verticalAlign=middle;whiteSpace=wrap;rounded=0;" vertex="1" parent="1">
          <mxGeometry x="-20" y="435" width="60" height="30" as="geometry" />
        </mxCell>
        <mxCell id="e1zbVRpwkA5otT1UR_wA-46" value="&lt;font style=&quot;font-size: 18px;&quot;&gt;Просмотр аудита&lt;/font&gt;" style="ellipse;whiteSpace=wrap;html=1;" vertex="1" parent="1">
          <mxGeometry x="-296.25" y="475" width="280" height="70" as="geometry" />
        </mxCell>
        <mxCell id="e1zbVRpwkA5otT1UR_wA-47" value="" style="endArrow=classic;html=1;rounded=0;exitX=0;exitY=1;exitDx=0;exitDy=0;exitPerimeter=0;curved=1;entryX=0;entryY=0.5;entryDx=0;entryDy=0;fillColor=#e51400;strokeColor=#B20000;strokeWidth=2;" edge="1" parent="1" source="e1zbVRpwkA5otT1UR_wA-2" target="e1zbVRpwkA5otT1UR_wA-46">
          <mxGeometry width="50" height="50" relative="1" as="geometry">
            <mxPoint x="-700" y="485" as="sourcePoint" />
            <mxPoint x="-650" y="435" as="targetPoint" />
            <Array as="points" />
          </mxGeometry>
        </mxCell>
        <mxCell id="e1zbVRpwkA5otT1UR_wA-48" value="&lt;h1&gt;&lt;font style=&quot;font-size: 26px;&quot;&gt;Диаграмма прецедентов&lt;/font&gt;&lt;/h1&gt;&lt;div&gt;&lt;font style=&quot;font-size: 26px;&quot;&gt;&lt;br&gt;&lt;/font&gt;&lt;/div&gt;&lt;div&gt;&lt;span style=&quot;font-size: 26px;&quot;&gt;Администратор - красная стрелка&lt;/span&gt;&lt;/div&gt;&lt;div&gt;&lt;span style=&quot;font-size: 26px;&quot;&gt;Генерал - синяя стрелка&lt;/span&gt;&lt;/div&gt;&lt;div&gt;&lt;span style=&quot;font-size: 26px;&quot;&gt;Солдат - зеленая стрелка&amp;nbsp;&lt;/span&gt;&lt;/div&gt;" style="text;html=1;strokeColor=none;fillColor=none;spacing=5;spacingTop=-20;whiteSpace=wrap;overflow=hidden;rounded=0;" vertex="1" parent="1">
          <mxGeometry x="-820" y="-960" width="420" height="190" as="geometry" />
        </mxCell>
        <mxCell id="e1zbVRpwkA5otT1UR_wA-2" value="&lt;font style=&quot;font-size: 17px;&quot;&gt;Генерал&lt;/font&gt;" style="shape=umlActor;verticalLabelPosition=bottom;verticalAlign=top;html=1;" vertex="1" parent="1">
          <mxGeometry x="-700" y="325" width="40" height="85" as="geometry" />
        </mxCell>
        <mxCell id="e1zbVRpwkA5otT1UR_wA-52" value="" style="endArrow=open;endFill=1;endSize=12;html=1;rounded=0;curved=1;fillColor=#e51400;strokeColor=#B20000;strokeWidth=2;exitX=0.5;exitY=0.5;exitDx=0;exitDy=0;exitPerimeter=0;entryX=0.08;entryY=0.806;entryDx=0;entryDy=0;entryPerimeter=0;" edge="1" parent="1" source="e1zbVRpwkA5otT1UR_wA-3" target="e1zbVRpwkA5otT1UR_wA-32">
          <mxGeometry width="160" relative="1" as="geometry">
            <mxPoint x="-710" y="540" as="sourcePoint" />
            <mxPoint x="-550" y="540" as="targetPoint" />
            <Array as="points">
              <mxPoint x="-550" y="-100" />
            </Array>
          </mxGeometry>
        </mxCell>
      </root>
    </mxGraphModel>
  </diagram>
</mxfile>
